<svg width="24" height="24" viewBox="0 0 24 24" fill="none" xmlns="http://www.w3.org/2000/svg">
<path d="M9.12207 17.9396C7.45117 17.9396 6.0918 19.2989 6.0918 20.9698C6.0918 22.6407 7.45117 24.0001 9.12207 24.0001C10.793 24.0001 12.1523 22.6407 12.1523 20.9698C12.1523 19.2989 10.7929 17.9396 9.12207 17.9396ZM9.12207 22.1819C8.45358 22.1819 7.90998 21.6383 7.90998 20.9698C7.90998 20.3013 8.45358 19.7577 9.12207 19.7577C9.79022 19.7577 10.3342 20.3013 10.3342 20.9698C10.3342 21.6383 9.79055 22.1819 9.12207 22.1819Z" fill="#0F2438" stroke="white" stroke-width="0.3"/>
<path d="M18.0918 17.9396C16.4209 17.9396 15.0615 19.2989 15.0615 20.9698C15.0615 22.6407 16.4209 24.0001 18.0918 24.0001C19.7627 24.0001 21.1221 22.6407 21.1221 20.9698C21.1221 19.2989 19.7627 17.9396 18.0918 17.9396ZM18.0918 22.1819C17.4233 22.1819 16.8797 21.6383 16.8797 20.9698C16.8797 20.3013 17.4233 19.7577 18.0918 19.7577C18.7603 19.7577 19.3039 20.3013 19.3039 20.9698C19.3039 21.6383 18.7603 22.1819 18.0918 22.1819Z" fill="#0F2438" stroke="white" stroke-width="0.3"/>
<path d="M23.3483 5.91913C23.1755 5.70214 22.9137 5.57581 22.6367 5.57581H6.71886L5.8925 1.3995C5.82008 1.03374 5.53161 0.749208 5.16463 0.681943L1.52831 0.0152893C1.0335 -0.0759291 0.56077 0.251679 0.470161 0.745599C0.379552 1.23952 0.706504 1.71314 1.20047 1.80375L4.22891 2.35889L6.89675 15.8432C6.98098 16.269 7.35462 16.5759 7.78854 16.5759H20.5156C20.9389 16.5759 21.3059 16.2841 21.4014 15.8711L23.5225 6.68942C23.5849 6.41942 23.5207 6.13578 23.3483 5.91913ZM19.7926 14.7578H8.53516L7.07853 7.39428H21.4934L19.7926 14.7578Z" fill="#0F2438" stroke="white" stroke-width="0.3"/>
</svg>
