<svg width="21" height="21" viewBox="0 0 21 21" fill="none" xmlns="http://www.w3.org/2000/svg">
<path d="M19.5117 2.95318C18.5194 1.98426 17.1485 1.5 15.3983 1.5C14.914 1.5 14.4197 1.58398 13.9159 1.75186C13.4119 1.91986 12.943 2.14651 12.5098 2.43165C12.076 2.71671 11.7033 2.98441 11.3905 3.23434C11.0782 3.48435 10.7812 3.75004 10.5 4.0312C10.2187 3.75004 9.92179 3.48435 9.60939 3.23434C9.29679 2.98441 8.92385 2.71688 8.49016 2.43165C8.05655 2.14639 7.58777 1.9199 7.0839 1.75186C6.58006 1.58402 6.08583 1.5 5.60149 1.5C3.85143 1.5 2.48043 1.98438 1.48827 2.95318C0.496118 3.9219 0 5.26557 0 6.98431C0 7.50776 0.0919421 8.04702 0.275457 8.60142C0.458972 9.15611 0.668099 9.62884 0.902429 10.0194C1.13672 10.4099 1.40241 10.7907 1.69929 11.1618C1.99617 11.5329 2.21314 11.7887 2.3497 11.9293C2.48638 12.0699 2.59384 12.1716 2.67195 12.2342L9.98434 19.2889C10.125 19.4295 10.2969 19.5 10.5 19.5C10.7031 19.5 10.875 19.4295 11.0156 19.2889L18.3164 12.2574C20.1055 10.4686 21 8.71077 21 6.98414C21 5.26528 20.5039 3.92173 19.5117 2.95318ZM17.2968 11.156L10.5 17.7067L3.69156 11.1442C2.23058 9.68355 1.50022 8.29666 1.50022 6.98414C1.50022 6.35143 1.5842 5.79275 1.75207 5.3085C1.92007 4.82416 2.13491 4.43928 2.39661 4.15413C2.65836 3.86891 2.97667 3.63667 3.35166 3.45685C3.72686 3.27719 4.09401 3.15607 4.45333 3.0936C4.81264 3.03121 5.19539 2.99997 5.6017 2.99997C6.00789 2.99997 6.44547 3.09947 6.91421 3.29874C7.38287 3.49794 7.81451 3.74794 8.209 4.04869C8.60357 4.34963 8.94146 4.63084 9.22283 4.89246C9.50403 5.15433 9.73832 5.39441 9.92585 5.61318C10.0664 5.78512 10.258 5.87107 10.5 5.87107C10.7422 5.87107 10.9336 5.78512 11.0743 5.61318C11.2618 5.39441 11.4962 5.15421 11.7774 4.89246C12.0587 4.63084 12.3966 4.34976 12.791 4.04869C13.1856 3.74794 13.6172 3.49794 14.0861 3.29874C14.5547 3.09951 14.9924 2.99997 15.3986 2.99997C15.8049 2.99997 16.1875 3.03121 16.547 3.0936C16.9064 3.15603 17.2736 3.27719 17.6486 3.45685C18.0237 3.63663 18.342 3.86903 18.6036 4.15413C18.8653 4.43928 19.0803 4.82416 19.2483 5.3085C19.416 5.79275 19.4999 6.35143 19.4999 6.98414C19.4999 8.29666 18.7656 9.68741 17.2968 11.156Z" fill="#005BB9"/>
</svg>
