<svg width="28" height="28" viewBox="0 0 28 28" fill="none" xmlns="http://www.w3.org/2000/svg">
<g clip-path="url(#clip0_30:491)">
<path d="M10.6418 20.9294C8.69238 20.9294 7.10645 22.5154 7.10645 24.4648C7.10645 26.4141 8.69238 28.0001 10.6418 28.0001C12.5911 28.0001 14.1771 26.4141 14.1771 24.4648C14.1771 22.5154 12.5911 20.9294 10.6418 20.9294ZM10.6418 25.8789C9.86186 25.8789 9.22766 25.2446 9.22766 24.4648C9.22766 23.6849 9.86186 23.0507 10.6418 23.0507C11.4213 23.0507 12.0559 23.6849 12.0559 24.4648C12.0559 25.2446 11.4217 25.8789 10.6418 25.8789Z" fill="#0F2438" stroke="white" stroke-width="0.3"/>
<path d="M21.1056 20.9294C19.1562 20.9294 17.5703 22.5154 17.5703 24.4648C17.5703 26.4141 19.1562 28.0001 21.1056 28.0001C23.055 28.0001 24.6409 26.4141 24.6409 24.4648C24.6409 22.5154 23.055 20.9294 21.1056 20.9294ZM21.1056 25.8789C20.3257 25.8789 19.6915 25.2446 19.6915 24.4648C19.6915 23.6849 20.3257 23.0507 21.1056 23.0507C21.8855 23.0507 22.5197 23.6849 22.5197 24.4648C22.5197 25.2446 21.8855 25.8789 21.1056 25.8789Z" fill="#0F2438" stroke="white" stroke-width="0.3"/>
<path d="M27.239 6.90559C27.0375 6.65245 26.732 6.50506 26.4089 6.50506H7.83801L6.87393 1.6327C6.78944 1.20597 6.45289 0.874023 6.02475 0.795547L1.78238 0.0177841C1.2051 -0.0886374 0.653581 0.293572 0.54787 0.869812C0.44216 1.44605 0.823604 1.99861 1.3999 2.10432L4.93308 2.75198L8.04555 18.4837C8.14383 18.9804 8.57974 19.3385 9.08598 19.3385H23.9342C24.4281 19.3385 24.8563 18.9981 24.9676 18.5162L27.4423 7.80427C27.5151 7.48927 27.4402 7.15836 27.239 6.90559ZM23.0907 17.2174H9.95704L8.25763 8.6266H25.075L23.0907 17.2174Z" fill="#0F2438" stroke="white" stroke-width="0.3"/>
</g>
<defs>
<clipPath id="clip0_30:491">
<rect width="28" height="28" fill="white"/>
</clipPath>
</defs>
</svg>
