<svg width="32" height="32" viewBox="0 0 32 32" fill="none" xmlns="http://www.w3.org/2000/svg">
<path d="M16 0C7.16343 0 0 7.16343 0 16C0 24.8365 7.16343 31.9999 16 31.9999C24.8365 31.9999 31.9999 24.8365 31.9999 16C31.9906 7.16738 24.8326 0.00944196 16 0ZM16 29.7142C8.42578 29.7142 2.28569 23.5742 2.28569 16C2.28569 8.42578 8.42578 2.28569 16 2.28569C23.5742 2.28569 29.7142 8.42578 29.7142 16C29.7061 23.5708 23.5708 29.7061 16 29.7142Z" fill="#0F2438"/>
<path d="M15.9996 5.71436C15.3684 5.71436 14.8567 6.22603 14.8567 6.85723V14.8573H6.85675C6.22554 14.8573 5.71387 15.3689 5.71387 16.0001C5.71387 16.6313 6.22554 17.1429 6.85675 17.1429H15.9996C16.6308 17.1429 17.1425 16.6313 17.1425 16.0001V6.85723C17.1425 6.22603 16.6308 5.71436 15.9996 5.71436Z" fill="#0F2438"/>
</svg>
