<svg width="21" height="21" viewBox="0 0 21 21" fill="none" xmlns="http://www.w3.org/2000/svg">
<g clip-path="url(#clip0_30:181)">
<path d="M20.5625 18.375H0.4375C0.196 18.375 0 18.179 0 17.9375C0 17.696 0.196 17.5 0.4375 17.5H20.5625C20.804 17.5 21 17.696 21 17.9375C21 18.179 20.804 18.375 20.5625 18.375Z" fill="#005BB9" stroke="#005BB9" stroke-width="0.4"/>
<path d="M5.6875 18.375H1.3125C1.071 18.375 0.875 18.179 0.875 17.9375V7C0.875 6.51788 1.26787 6.125 1.75 6.125H5.25C5.73212 6.125 6.125 6.51788 6.125 7V17.9375C6.125 18.179 5.929 18.375 5.6875 18.375ZM1.75 17.5H5.25V7H1.75V17.5Z" fill="#005BB9" stroke="#005BB9" stroke-width="0.4"/>
<path d="M12.6875 18.375H8.3125C8.071 18.375 7.875 18.179 7.875 17.9375V3.5C7.875 3.01788 8.26788 2.625 8.75 2.625H12.25C12.7321 2.625 13.125 3.01788 13.125 3.5V17.9375C13.125 18.179 12.929 18.375 12.6875 18.375ZM8.75 17.5H12.25V3.5H8.75V17.5Z" fill="#005BB9" stroke="#005BB9" stroke-width="0.4"/>
<path d="M19.6875 18.375H15.3125C15.071 18.375 14.875 18.179 14.875 17.9375V9.625C14.875 9.14287 15.2679 8.75 15.75 8.75H19.25C19.7321 8.75 20.125 9.14287 20.125 9.625V17.9375C20.125 18.179 19.929 18.375 19.6875 18.375ZM15.75 17.5H19.25V9.625H15.75V17.5Z" fill="#005BB9" stroke="#005BB9" stroke-width="0.4"/>
</g>
<defs>
<clipPath id="clip0_30:181">
<rect width="21" height="21" fill="white"/>
</clipPath>
</defs>
</svg>
