<svg width="12" height="12" viewBox="0 0 12 12" fill="none" xmlns="http://www.w3.org/2000/svg">
<path d="M6.0015 0H5.9985C2.69025 0 0 2.691 0 6C0 7.3125 0.423 8.529 1.14225 9.51675L0.3945 11.7458L2.70075 11.0085C3.6495 11.637 4.78125 12 6.0015 12C9.30975 12 12 9.30825 12 6C12 2.69175 9.30975 0 6.0015 0Z" fill="#4CAF50"/>
<path d="M9.49242 8.47264C9.34767 8.88139 8.77317 9.22039 8.31492 9.31939C8.00142 9.38614 7.59192 9.43939 6.21342 8.86789C4.45017 8.13739 3.31467 6.34564 3.22617 6.22939C3.14142 6.11314 2.51367 5.28064 2.51367 4.41964C2.51367 3.55864 2.95092 3.13939 3.12717 2.95939C3.27192 2.81164 3.51117 2.74414 3.74067 2.74414C3.81492 2.74414 3.88167 2.74789 3.94167 2.75089C4.11792 2.75839 4.20642 2.76889 4.32267 3.04714C4.46742 3.39589 4.81992 4.25689 4.86192 4.34539C4.90467 4.43389 4.94742 4.55389 4.88742 4.67014C4.83117 4.79014 4.78167 4.84339 4.69317 4.94539C4.60467 5.04739 4.52067 5.12539 4.43217 5.23489C4.35117 5.33014 4.25967 5.43214 4.36167 5.60839C4.46367 5.78089 4.81617 6.35614 5.33517 6.81814C6.00492 7.41439 6.54792 7.60489 6.74217 7.68589C6.88692 7.74589 7.05942 7.73164 7.16517 7.61914C7.29942 7.47439 7.46517 7.23439 7.63392 6.99814C7.75392 6.82864 7.90542 6.80764 8.06442 6.86764C8.22642 6.92389 9.08367 7.34764 9.25992 7.43539C9.43617 7.52389 9.55242 7.56589 9.59517 7.64014C9.63717 7.71439 9.63717 8.06314 9.49242 8.47264Z" fill="#FAFAFA"/>
</svg>
