<svg width="17" height="17" viewBox="0 0 17 17" fill="none" xmlns="http://www.w3.org/2000/svg">
<g clip-path="url(#clip0_30:579)">
<path d="M6.46089 12.7073C5.27734 12.7073 4.31445 13.6702 4.31445 14.8537C4.31445 16.0373 5.27734 17.0002 6.46089 17.0002C7.64445 17.0002 8.60733 16.0373 8.60733 14.8537C8.60733 13.6702 7.64441 12.7073 6.46089 12.7073ZM6.46089 15.7123C5.98739 15.7123 5.60233 15.3272 5.60233 14.8537C5.60233 14.3802 5.98739 13.9952 6.46089 13.9952C6.93417 13.9952 7.31946 14.3802 7.31946 14.8537C7.31946 15.3272 6.9344 15.7123 6.46089 15.7123Z" fill="white"/>
<path d="M12.8144 12.7073C11.6309 12.7073 10.668 13.6702 10.668 14.8537C10.668 16.0373 11.6309 17.0002 12.8144 17.0002C13.998 17.0002 14.9608 16.0373 14.9608 14.8537C14.9608 13.6702 13.998 12.7073 12.8144 12.7073ZM12.8144 15.7123C12.3409 15.7123 11.9558 15.3272 11.9558 14.8537C11.9558 14.3802 12.3409 13.9952 12.8144 13.9952C13.2879 13.9952 13.673 14.3802 13.673 14.8537C13.673 15.3272 13.2879 15.7123 12.8144 15.7123Z" fill="white"/>
<path d="M16.5383 4.19268C16.4159 4.03898 16.2305 3.9495 16.0343 3.9495H4.75911L4.17377 0.991282C4.12247 0.732199 3.91814 0.530657 3.6582 0.48301L1.08247 0.0107975C0.731983 -0.0538156 0.397131 0.17824 0.332949 0.5281C0.268768 0.87796 0.500359 1.21344 0.850252 1.27762L2.9954 1.67085L4.88511 11.2223C4.94478 11.5238 5.20944 11.7412 5.5168 11.7412H14.5318C14.8317 11.7412 15.0916 11.5346 15.1592 11.242L16.6617 4.73831C16.7059 4.54706 16.6604 4.34615 16.5383 4.19268ZM14.0197 10.4534H6.04566L5.01387 5.23758H15.2244L14.0197 10.4534Z" fill="white"/>
</g>
<defs>
<clipPath id="clip0_30:579">
<rect width="17" height="17" fill="white"/>
</clipPath>
</defs>
</svg>
